<svg xmlns="http://www.w3.org/2000/svg" xmlns:xlink="http://www.w3.org/1999/xlink" width="100" zoomAndPan="magnify" viewBox="0 0 75 74.999997" height="100" preserveAspectRatio="xMidYMid meet" version="1.0"><defs><clipPath id="461d89563a"><path d="M 0.855469 0.855469 L 74.144531 0.855469 L 74.144531 74.144531 L 0.855469 74.144531 Z M 0.855469 0.855469 " clip-rule="nonzero"/></clipPath><clipPath id="8b09a21a78"><path d="M 37.5 0.855469 C 17.261719 0.855469 0.855469 17.261719 0.855469 37.5 C 0.855469 57.738281 17.261719 74.144531 37.5 74.144531 C 57.738281 74.144531 74.144531 57.738281 74.144531 37.5 C 74.144531 17.261719 57.738281 0.855469 37.5 0.855469 Z M 37.5 0.855469 " clip-rule="nonzero"/></clipPath><clipPath id="04899d3896"><path d="M 7.015625 7 L 67.765625 7 L 67.765625 68 L 7.015625 68 Z M 7.015625 7 " clip-rule="nonzero"/></clipPath></defs><g clip-path="url(#461d89563a)"><g clip-path="url(#8b09a21a78)"><path fill="#ffffff" d="M 0.855469 0.855469 L 74.144531 0.855469 L 74.144531 74.144531 L 0.855469 74.144531 Z M 0.855469 0.855469 " fill-opacity="1" fill-rule="nonzero"/></g></g><g clip-path="url(#04899d3896)"><path fill="#231f20" d="M 67.285156 21.390625 C 66.695312 20.585938 65.945312 19.871094 65.042969 19.410156 C 63.484375 18.566406 61.664062 18.40625 59.929688 18.480469 C 57.867188 15.863281 55.3125 13.640625 52.488281 11.875 C 50.726562 10.777344 48.867188 9.878906 46.914062 9.175781 C 44.957031 8.476562 42.949219 7.992188 40.890625 7.722656 C 38.832031 7.453125 36.765625 7.402344 34.695312 7.574219 C 32.625 7.746094 30.597656 8.132812 28.613281 8.742188 C 23.039062 10.402344 18.019531 13.816406 14.339844 18.3125 C 14.183594 18.492188 14.089844 18.726562 13.882812 18.847656 C 11.929688 18.859375 9.894531 19.382812 8.441406 20.742188 C 8.050781 21.113281 7.710938 21.523438 7.417969 21.972656 C 7.015625 22.601562 7.023438 23.523438 7.566406 24.058594 C 8.316406 24.800781 9.082031 25.53125 9.855469 26.242188 C 8.570312 29.257812 7.792969 32.398438 7.519531 35.664062 C 7.351562 38.027344 7.433594 40.378906 7.765625 42.722656 C 8.296875 46.328125 9.484375 49.703125 11.328125 52.847656 C 13.203125 56.039062 15.570312 58.808594 18.433594 61.15625 C 21.46875 63.632812 24.863281 65.429688 28.621094 66.542969 C 35.152344 68.503906 42.367188 68.097656 48.613281 65.359375 C 51.246094 64.203125 53.660156 62.699219 55.859375 60.84375 C 58.074219 58.96875 59.980469 56.820312 61.582031 54.398438 C 63.179688 51.976562 64.410156 49.382812 65.269531 46.609375 C 66.140625 43.683594 66.550781 40.695312 66.496094 37.644531 C 66.441406 33.855469 65.726562 30.0625 64.234375 26.570312 C 65.175781 25.679688 66.09375 24.789062 66.996094 23.867188 C 67.257812 23.597656 67.539062 23.304688 67.632812 22.921875 C 67.765625 22.386719 67.605469 21.824219 67.285156 21.390625 Z M 57.566406 18.914062 C 57.25 18.972656 56.941406 19.0625 56.644531 19.1875 C 56.851562 18.949219 57.03125 18.691406 57.179688 18.417969 C 57.292969 18.597656 57.417969 18.761719 57.566406 18.914062 Z M 56.910156 16.894531 C 56.699219 17.59375 56.367188 18.226562 55.90625 18.792969 L 55.886719 18.792969 C 55.546875 19.308594 55.058594 19.691406 54.5625 20.058594 C 52.957031 21.128906 51.167969 22.011719 49.234375 22.207031 C 49.074219 21.871094 48.898438 21.546875 48.699219 21.230469 C 48.53125 21.042969 48.378906 20.835938 48.210938 20.648438 C 47.640625 19.992188 46.898438 19.503906 46.402344 18.792969 C 48.960938 19.382812 51.730469 19.496094 54.242188 18.605469 C 55.246094 18.265625 56.214844 17.730469 56.910156 16.894531 Z M 43.023438 51.402344 C 40.847656 50.925781 38.585938 51.011719 36.390625 51.292969 C 35.152344 51.433594 34.035156 52.089844 32.785156 52.15625 C 32.242188 52.199219 31.773438 52.03125 31.378906 51.65625 C 30.964844 51.261719 30.789062 50.671875 30.835938 50.117188 C 30.910156 48.796875 30.949219 47.460938 31.25 46.167969 C 31.484375 45.125 32.101562 44.113281 33.085938 43.613281 C 33.867188 43.191406 34.777344 43.136719 35.648438 43.15625 C 37.148438 43.164062 38.660156 43.25 40.171875 43.125 C 41.417969 43.03125 42.683594 42.84375 43.921875 43.042969 C 44.425781 43.128906 44.886719 43.320312 45.304688 43.613281 C 45.722656 43.90625 46.058594 44.269531 46.316406 44.710938 C 46.992188 45.933594 47.066406 47.351562 47.207031 48.710938 C 47.253906 49.273438 47.460938 49.835938 47.386719 50.398438 C 47.347656 50.710938 47.226562 50.984375 47.023438 51.222656 C 46.820312 51.460938 46.570312 51.625 46.269531 51.714844 C 45.800781 51.84375 45.304688 51.84375 44.816406 51.796875 C 44.328125 51.75 43.625 51.527344 43.023438 51.402344 Z M 43.53125 52.550781 C 43.078125 53.523438 42.054688 54.136719 41.003906 54.238281 C 39.613281 54.363281 38.222656 54.371094 36.832031 54.265625 C 36.328125 54.234375 35.859375 54.085938 35.433594 53.820312 C 35.003906 53.554688 34.664062 53.203125 34.410156 52.765625 L 35.171875 52.472656 C 35.949219 52.164062 36.792969 52.097656 37.617188 52.003906 C 39.542969 51.855469 41.511719 51.828125 43.390625 52.378906 C 43.5 52.371094 43.546875 52.425781 43.53125 52.550781 Z M 28.902344 32.820312 C 28.433594 32.820312 27.964844 32.925781 27.496094 32.832031 C 27.027344 32.738281 26.679688 32.445312 26.492188 32.050781 C 26.820312 32.128906 27.15625 32.222656 27.503906 32.195312 C 28.207031 32.148438 28.929688 31.863281 29.625 32.148438 C 30.320312 32.429688 30.9375 33.273438 31.164062 34.089844 C 30.957031 33.816406 30.789062 33.507812 30.507812 33.320312 C 30.027344 32.976562 29.492188 32.808594 28.902344 32.820312 Z M 30.167969 47.660156 C 28.835938 46.410156 27.984375 44.710938 27.496094 42.96875 C 28.113281 44.402344 28.960938 45.800781 30.226562 46.757812 C 30.246094 47.058594 30.160156 47.359375 30.167969 47.660156 Z M 27.859375 28.816406 C 27.167969 28.542969 26.398438 28.75 25.777344 29.113281 C 25.898438 28.816406 26.152344 28.589844 26.40625 28.402344 C 26.988281 27.980469 27.832031 28.054688 28.394531 28.488281 C 28.960938 28.917969 29.457031 29.761719 29.757812 30.523438 C 29.257812 29.820312 28.6875 29.113281 27.859375 28.816406 Z M 28.085938 29.980469 C 28.039062 30.121094 27.898438 30.167969 27.785156 30.230469 C 27.597656 30.0625 27.402344 29.902344 27.28125 29.6875 C 27.421875 29.507812 27.625 29.539062 27.824219 29.59375 C 28.019531 29.648438 28.078125 29.800781 28.097656 29.96875 Z M 26.042969 29.914062 C 26.238281 29.546875 26.707031 29.480469 27.082031 29.453125 C 26.875 29.621094 26.632812 29.761719 26.539062 30.015625 C 26.359375 30.476562 26.652344 31.03125 27.109375 31.179688 C 27.410156 31.320312 27.738281 31.320312 28.058594 31.328125 C 27.589844 31.574219 27.007812 31.628906 26.527344 31.375 C 26.050781 31.125 25.835938 30.417969 26.042969 29.914062 Z M 46.917969 32.71875 C 46.042969 32.679688 45.304688 33.308594 44.917969 34.050781 C 45.03125 33.347656 45.320312 32.570312 45.988281 32.210938 C 46.390625 31.976562 46.878906 32.015625 47.328125 32.089844 C 47.777344 32.152344 48.222656 32.128906 48.660156 32.015625 C 48.285156 32.578125 47.5625 32.773438 46.917969 32.71875 Z M 47.167969 30.195312 C 47.058594 30.316406 46.945312 30.054688 46.964844 29.960938 C 46.972656 29.621094 47.3125 29.480469 47.574219 29.378906 C 47.675781 29.480469 47.875 29.679688 47.695312 29.800781 C 47.515625 29.921875 47.375 29.820312 47.246094 29.742188 C 47.21875 29.882812 47.375 30.128906 47.167969 30.195312 Z M 48.457031 31.394531 C 48.023438 31.558594 47.605469 31.535156 47.199219 31.320312 C 47.863281 31.367188 48.699219 30.878906 48.625 30.128906 C 48.625 29.707031 48.210938 29.519531 47.929688 29.285156 C 48.296875 29.273438 48.707031 29.378906 48.925781 29.695312 C 49.253906 30.261719 49.035156 31.105469 48.445312 31.394531 Z M 47 28.890625 C 46.382812 29.273438 45.96875 29.902344 45.632812 30.53125 C 45.867188 29.734375 46.183594 28.898438 46.859375 28.382812 C 47.535156 27.867188 48.324219 27.875 48.878906 28.363281 C 49.085938 28.542969 49.246094 28.757812 49.355469 29.011719 C 49.015625 28.742188 48.628906 28.59375 48.195312 28.570312 C 47.757812 28.550781 47.359375 28.65625 46.992188 28.890625 Z M 47.9375 25.191406 C 46.792969 25.324219 45.902344 26.179688 45.21875 27.042969 C 43.988281 28.675781 43.332031 30.683594 43.023438 32.679688 C 42.683594 34.972656 42.882812 37.363281 43.734375 39.523438 C 44.167969 40.660156 44.804688 41.699219 45.492188 42.695312 C 44.992188 42.460938 44.476562 42.234375 43.921875 42.167969 C 42.167969 41.945312 40.414062 42.328125 38.660156 42.328125 C 37.414062 42.347656 36.164062 42.28125 34.917969 42.320312 C 34.160156 42.34375 33.433594 42.507812 32.738281 42.816406 C 34.167969 39.296875 34.015625 35.28125 32.878906 31.695312 C 32.300781 29.894531 31.464844 28.121094 30.140625 26.742188 C 29.464844 26.066406 28.648438 25.457031 27.683594 25.296875 C 26.914062 25.144531 26.070312 25.351562 25.515625 25.90625 C 25.609375 24.996094 25.917969 24.105469 26.492188 23.382812 C 27.316406 22.253906 28.621094 21.644531 29.558594 20.632812 C 30.164062 20.027344 30.535156 19.304688 30.675781 18.464844 C 31.625 18.773438 32.628906 18.8125 33.613281 18.753906 C 34.597656 18.699219 35.40625 18.6875 36.210938 19.082031 C 36.855469 19.40625 37.3125 19.902344 37.582031 20.574219 C 37.679688 20.417969 37.746094 20.25 37.777344 20.066406 C 38.277344 20.773438 38.773438 21.511719 38.988281 22.359375 C 39.449219 21.523438 39.484375 20.546875 39.496094 19.609375 C 39.71875 20.097656 39.992188 20.59375 40.453125 20.914062 C 40.910156 21.230469 41.128906 21.390625 41.539062 21.417969 C 41.136719 20.988281 40.855469 20.460938 40.621094 19.925781 C 41.390625 20.660156 42.261719 21.324219 43.304688 21.605469 C 42.84375 20.78125 42.714844 19.824219 42.488281 18.921875 C 43.066406 19.480469 43.710938 19.957031 44.410156 20.351562 C 45.332031 20.855469 46.289062 21.308594 47.113281 21.953125 C 47.730469 22.40625 48.246094 22.953125 48.65625 23.597656 C 49.066406 24.242188 49.34375 24.9375 49.488281 25.691406 C 49.054688 25.332031 48.503906 25.097656 47.929688 25.191406 Z M 42.292969 16.445312 C 42.914062 17.023438 43.433594 17.683594 43.847656 18.425781 C 42.75 17.582031 41.429688 16.886719 40 16.941406 C 40.667969 17.664062 41.34375 18.425781 41.699219 19.34375 C 40.863281 18.371094 39.796875 17.449219 38.480469 17.242188 C 38.660156 17.605469 38.789062 17.984375 38.875 18.378906 C 37.796875 17.027344 36.089844 16.164062 34.355469 16.21875 C 34.277344 16.210938 34.269531 16.191406 34.324219 16.144531 C 34.644531 15.949219 34.953125 15.703125 35.328125 15.609375 C 34.933594 15.402344 34.476562 15.441406 34.042969 15.402344 C 34.804688 15.046875 35.648438 14.980469 36.457031 14.839844 C 38.191406 14.570312 39.972656 14.417969 41.710938 14.746094 C 42.742188 14.953125 43.800781 15.347656 44.496094 16.171875 C 43.585938 15.75 42.5625 15.535156 41.578125 15.769531 C 41.792969 16.042969 42.066406 16.21875 42.292969 16.445312 Z M 24.277344 12.9375 C 26.21875 11.878906 28.261719 11.074219 30.402344 10.523438 C 32.542969 9.972656 34.71875 9.691406 36.929688 9.679688 C 39.140625 9.664062 41.320312 9.921875 43.464844 10.449219 C 45.613281 10.972656 47.664062 11.753906 49.617188 12.785156 C 51.785156 13.949219 53.769531 15.367188 55.578125 17.035156 C 54.054688 17.984375 52.273438 18.511719 50.480469 18.425781 C 48.988281 18.425781 47.535156 18.070312 46.089844 17.742188 C 45.898438 16.972656 45.570312 16.269531 45.101562 15.632812 C 44.632812 14.992188 44.0625 14.46875 43.390625 14.050781 C 41.164062 12.691406 38.265625 12.644531 35.902344 13.667969 C 35.574219 13.789062 35.292969 14.015625 34.964844 14.128906 C 35.394531 13.535156 36.003906 13.113281 36.652344 12.785156 C 34.464844 12.625 32.242188 13.675781 30.964844 15.460938 C 30.722656 14.296875 31.304688 13.152344 32.148438 12.382812 C 30.882812 12.785156 29.894531 13.550781 29.183594 14.671875 C 28.582031 15.679688 28.390625 16.757812 28.601562 17.910156 C 26.773438 18.324219 24.894531 18.765625 23.011719 18.566406 C 21.480469 18.398438 19.933594 17.9375 18.675781 17.027344 C 20.363281 15.441406 22.222656 14.023438 24.277344 12.9375 Z M 20.355469 18.800781 C 21.796875 19.265625 23.273438 19.46875 24.785156 19.410156 C 26.003906 19.335938 27.222656 19.203125 28.40625 18.894531 C 28.066406 19.457031 27.542969 19.871094 27.082031 20.332031 C 26.730469 20.683594 26.410156 21.058594 26.117188 21.457031 C 25.910156 21.804688 25.742188 22.160156 25.542969 22.519531 C 24.355469 22.367188 23.222656 22.027344 22.148438 21.503906 C 21.039062 20.980469 19.960938 20.359375 19.070312 19.503906 C 18.976562 19.410156 18.890625 19.304688 18.816406 19.195312 C 18.226562 18.660156 17.839844 17.910156 17.585938 17.160156 C 18.320312 17.964844 19.332031 18.453125 20.355469 18.800781 Z M 17.269531 18.574219 C 17.492188 18.867188 17.691406 19.175781 17.953125 19.449219 C 17.570312 19.316406 17.136719 19.316406 16.769531 19.140625 C 16.96875 18.980469 17.082031 18.726562 17.257812 18.574219 Z M 12.746094 19.664062 C 15.289062 19.476562 17.925781 20.019531 20.074219 21.417969 C 21.59375 22.359375 23.246094 23.109375 25.019531 23.410156 C 24.597656 23.832031 23.941406 23.90625 23.375 23.773438 C 22.324219 23.597656 21.386719 23.042969 20.496094 22.5 C 18.855469 21.4375 17.042969 20.574219 15.101562 20.238281 C 13.515625 19.992188 11.855469 19.890625 10.308594 20.367188 C 11.039062 19.925781 11.902344 19.738281 12.746094 19.664062 Z M 18.011719 26.394531 C 18.777344 27.097656 19.859375 27.3125 20.851562 27.464844 C 19.183594 27.761719 17.582031 27.550781 16.050781 26.835938 C 14.773438 26.242188 13.589844 25.351562 12.832031 24.160156 C 13.644531 24.378906 14.46875 24.417969 15.296875 24.28125 C 16.292969 24.140625 17.183594 23.570312 18.199219 23.550781 C 19.210938 23.53125 20.429688 24.09375 21.21875 24.890625 C 20.242188 24.46875 19.136719 24.246094 18.09375 24.5625 C 17.832031 24.65625 17.484375 24.769531 17.417969 25.078125 C 17.316406 25.585938 17.664062 26.054688 18.011719 26.394531 Z M 20.441406 50.765625 C 19.839844 51.921875 20.007812 53.253906 20.148438 54.5 C 19.339844 54.089844 18.804688 53.445312 18.542969 52.578125 C 18.339844 51.902344 18.355469 51.113281 18.777344 50.523438 C 19.4375 49.582031 20.457031 49.011719 21.273438 48.242188 C 21.480469 49.179688 20.832031 49.976562 20.441406 50.765625 Z M 22.757812 43.3125 C 22.335938 44.066406 22.054688 44.890625 21.554688 45.585938 C 20.832031 46.523438 19.746094 47.078125 18.730469 47.648438 C 16.921875 48.636719 15.101562 49.613281 13.355469 50.699219 C 13.195312 50.804688 13.046875 50.917969 12.898438 51.027344 C 11.011719 47.554688 9.957031 43.84375 9.734375 39.898438 C 9.554688 37.238281 9.75 34.609375 10.324219 32.003906 C 10.652344 30.589844 11.066406 29.179688 11.65625 27.847656 C 13.054688 29.058594 14.519531 30.25 16.238281 30.984375 C 17.859375 31.671875 19.53125 31.816406 21.246094 31.414062 C 22.667969 31.097656 23.980469 30.53125 25.1875 29.714844 C 25.207031 30.175781 25.320312 30.617188 25.414062 31.066406 C 25.160156 32.023438 25.074219 33.058594 25.421875 33.996094 C 25.589844 34.417969 25.9375 34.800781 25.910156 35.28125 C 25.851562 36.695312 25.945312 38.101562 26.191406 39.496094 C 24.722656 40.476562 23.578125 41.75 22.757812 43.3125 Z M 36.691406 65.144531 C 36.625 65.265625 36.605469 65.425781 36.511719 65.527344 C 36.25 65.542969 35.992188 65.539062 35.734375 65.519531 C 33.40625 65.402344 31.136719 64.984375 28.921875 64.269531 C 29.578125 62.75 29.933594 61.0625 29.632812 59.417969 C 29.335938 57.777344 28.3125 56.164062 27.035156 54.980469 C 26.371094 54.398438 25.648438 53.742188 25.535156 52.800781 C 25.382812 51.488281 26.191406 50.296875 26.191406 48.992188 C 26.238281 47.867188 25.601562 46.84375 25.65625 45.71875 C 25.691406 45.035156 25.984375 44.488281 26.527344 44.074219 C 26.492188 44.882812 26.679688 45.679688 26.953125 46.429688 C 27.222656 47.179688 27.671875 47.960938 27.710938 48.8125 C 27.75 49.667969 27.570312 50.578125 27.90625 51.394531 C 28.246094 52.210938 28.902344 52.585938 29.445312 53.148438 C 30.132812 53.84375 30.496094 54.765625 30.882812 55.644531 C 31.867188 57.890625 33.085938 60.027344 34.390625 62.101562 C 34.496094 62.300781 34.757812 62.414062 34.953125 62.28125 C 35.152344 62.148438 35.292969 61.859375 35.433594 61.625 C 36.175781 60.214844 36.960938 58.828125 37.898438 57.542969 C 38.355469 56.917969 38.753906 56.261719 39.101562 55.570312 C 39.105469 55.449219 39.121094 55.324219 39.148438 55.203125 C 39.824219 55.175781 40.507812 55.167969 41.183594 55.121094 C 40.941406 56.714844 40.332031 58.234375 39.53125 59.632812 C 38.5 61.425781 37.460938 63.21875 36.691406 65.144531 Z M 62.011719 48.992188 C 60.808594 51.710938 59.214844 54.179688 57.230469 56.394531 C 55.246094 58.609375 52.96875 60.464844 50.398438 61.960938 C 47.277344 63.773438 43.929688 64.90625 40.347656 65.351562 C 40.300781 63.886719 40.132812 62.421875 39.757812 61.003906 C 40.847656 59.089844 41.839844 57.074219 42.085938 54.859375 C 43.117188 54.511719 44 53.710938 44.394531 52.679688 C 45.21875 52.746094 46.089844 52.746094 46.859375 52.410156 C 47.222656 52.238281 47.523438 51.992188 47.761719 51.671875 C 48 51.351562 48.148438 50.992188 48.210938 50.597656 C 48.34375 49.863281 48.097656 49.140625 48.042969 48.417969 C 47.921875 47.164062 47.789062 45.886719 47.300781 44.710938 C 48.097656 43.53125 48.539062 42.140625 48.785156 40.742188 C 49.027344 39.34375 49.054688 37.925781 49.046875 36.511719 C 49.054688 36.105469 49.019531 35.695312 49.101562 35.289062 C 49.1875 34.886719 49.535156 34.652344 49.664062 34.277344 C 50.097656 33.246094 49.945312 32.089844 49.601562 31.058594 C 49.796875 30.519531 49.882812 29.96875 49.863281 29.398438 C 50.726562 29.980469 51.683594 30.390625 52.660156 30.738281 C 54.273438 31.3125 56.0625 31.441406 57.726562 30.972656 C 59.535156 30.449219 61.066406 29.273438 62.480469 28.054688 C 65.050781 34.746094 64.929688 42.441406 62.011719 48.992188 Z M 57.601562 24.527344 C 57.453125 24.308594 57.199219 24.207031 56.957031 24.132812 C 55.886719 23.8125 54.703125 24 53.71875 24.507812 C 54.414062 23.667969 55.308594 23.199219 56.394531 23.097656 C 57.378906 23.035156 58.269531 23.511719 59.199219 23.757812 C 60.160156 24.011719 61.117188 24.007812 62.078125 23.746094 C 61.488281 24.828125 60.484375 25.613281 59.414062 26.195312 C 58.089844 26.902344 56.589844 27.265625 55.089844 27.152344 C 54.769531 27.125 54.441406 27.097656 54.121094 27.078125 C 55.117188 26.863281 56.203125 26.722656 57.011719 26.035156 C 57.433594 25.691406 57.789062 25.097656 57.59375 24.535156 Z M 60.03125 19.777344 C 58.125 20.078125 56.355469 20.753906 54.730469 21.804688 C 53.671875 22.472656 52.601562 23.222656 51.335938 23.410156 C 50.753906 23.53125 50.230469 23.40625 49.769531 23.035156 C 51.671875 22.800781 53.390625 21.859375 54.976562 20.835938 C 55.988281 20.164062 57.171875 19.796875 58.355469 19.515625 C 59.535156 19.234375 60.605469 19.214844 61.730469 19.242188 C 62.707031 19.269531 63.691406 19.476562 64.546875 19.957031 C 63.101562 19.476562 61.523438 19.5625 60.03125 19.785156 Z M 60.03125 19.777344 " fill-opacity="1" fill-rule="nonzero"/></g><path fill="#231f20" d="M 45.398438 46.355469 C 45.574219 45.933594 45.507812 45.445312 45.339844 45.03125 C 44.957031 44.335938 44.046875 44.207031 43.332031 44.355469 C 42.085938 44.609375 40.96875 45.332031 39.683594 45.445312 C 38.679688 45.566406 37.664062 45.339844 36.71875 45.023438 C 35.976562 44.777344 35.234375 44.460938 34.4375 44.488281 C 33.96875 44.488281 33.558594 44.644531 33.210938 44.957031 C 32.863281 45.292969 32.871094 45.828125 32.917969 46.28125 C 32.964844 46.730469 33.40625 46.984375 33.78125 47.144531 C 34.15625 47.304688 34.550781 47.707031 34.542969 48.167969 C 34.53125 48.625 34.476562 48.90625 34.757812 49.160156 C 35.179688 49.601562 35.929688 49.425781 36.296875 49 C 36.847656 48.390625 36.699219 47.386719 36.164062 46.804688 C 35.691406 46.324219 35.128906 45.984375 34.484375 45.78125 C 34.230469 45.6875 33.941406 45.746094 33.695312 45.632812 C 33.664062 45.464844 33.726562 45.347656 33.882812 45.285156 C 34.371094 45.160156 34.851562 45.171875 35.328125 45.324219 C 36.097656 45.546875 36.839844 45.859375 37.628906 46.015625 C 38.695312 46.257812 39.753906 46.226562 40.808594 45.933594 C 41.476562 45.753906 42.09375 45.453125 42.730469 45.230469 C 43.371094 45.003906 43.886719 44.890625 44.449219 45.105469 C 44.589844 45.199219 44.550781 45.371094 44.5625 45.511719 C 43.714844 45.601562 43.007812 45.960938 42.441406 46.597656 C 42.039062 47.050781 41.90625 47.6875 42.027344 48.269531 C 42.09375 48.574219 42.253906 48.824219 42.503906 49.007812 C 42.757812 49.195312 43.039062 49.277344 43.351562 49.253906 C 43.753906 49.253906 44.140625 48.878906 44.101562 48.464844 C 44.0625 48.054688 44.046875 47.695312 44.28125 47.386719 C 44.496094 46.871094 45.171875 46.851562 45.398438 46.355469 Z M 45.398438 46.355469 " fill-opacity="1" fill-rule="nonzero"/></svg>